<svg xmlns="http://www.w3.org/2000/svg" viewBox="0 0 537.06 537.06"><defs><style>.cls-1{fill:#795c4e;}.cls-2{fill:#af8e71;}.cls-3{fill:#d2bca7;}.cls-4{fill:#b85452;}.cls-5,.cls-7{fill:#50454b;}.cls-5,.cls-6{fill-rule:evenodd;}.cls-6{fill:#dfd1c8;}.cls-8{fill:#fff;}.cls-9{fill:none;}</style></defs><g id="Layer_2" data-name="Layer 2"><g id="Layer_1-2" data-name="Layer 1"><g id="Ears"><circle id="Right_Ear" data-name="Right Ear" class="cls-1" cx="387.73" cy="194.75" r="32.28"/><circle id="Left_Ear" data-name="Left Ear" class="cls-1" cx="148.13" cy="194.75" r="32.28"/></g><path id="Body" class="cls-2" d="M229.87,162.9H306c65.95,0,119.42,47.39,119.42,105.85h0c0,58.45-53.47,105.84-119.42,105.84H229.87c-66,0-119.42-47.39-119.42-105.84h0C110.45,210.29,163.92,162.9,229.87,162.9Z"/><g id="Mouth"><path id="Beard" class="cls-3" d="M234.32,269.69h67.22A35.44,35.44,0,0,1,337,305.12h0a35.44,35.44,0,0,1-35.43,35.44H234.32a35.44,35.44,0,0,1-35.43-35.44h0A35.43,35.43,0,0,1,234.32,269.69Z"/><ellipse id="Tongue" class="cls-4" cx="267.93" cy="316.19" rx="11.81" ry="9.64"/><path id="Nose" class="cls-5" d="M302,317.88c-.42.36-10.42,8.93-26.13.8-3.2-1.66-5.87-4.75-8-9.23-2.1,4.48-4.77,7.57-8,9.23-15.72,8.13-25.72-.44-26.13-.8a4.31,4.31,0,0,1,5.64-6.52c.34.28,6.31,4.94,16.54-.35.94-.49,3-2.07,4.88-7a12.22,12.22,0,0,1-7.63-8c-1.83-7.33,8.23-8.25,13.72-8.25h.95c.33,0,.65,0,.95,0,5.49,0,15.54.92,13.72,8.25a12.23,12.23,0,0,1-7.64,8c1.92,4.92,4,6.5,4.89,7,10.23,5.3,16.2.63,16.54.35a4.31,4.31,0,0,1,5.64,6.52Z"/></g><g id="Whiskers"><g id="Whiskers_Left" data-name="Whiskers Left"><path id="Bottom_Whisker-2" data-name="Bottom Whisker-2" class="cls-6" d="M59.09,352.09a1.92,1.92,0,0,1-.75-3.68,551.21,551.21,0,0,1,160.41-41,1.92,1.92,0,0,1,.38,3.81,547.35,547.35,0,0,0-159.3,40.68A1.92,1.92,0,0,1,59.09,352.09Z"/><path id="Top_Whisker-2" data-name="Top Whisker-2" class="cls-6" d="M218.92,295.92a1.87,1.87,0,0,1-.62-.1c-2-.69-4-1.36-6-2-59.71-19.29-125.6-21.3-195.82-6a1.91,1.91,0,0,1-.81-3.74c70.88-15.48,137.44-13.44,197.81,6.06,2,.65,4,1.33,6.05,2a1.92,1.92,0,0,1-.63,3.73Z"/></g><g id="Whiskers-2" data-name="Whiskers"><g id="Whiskers_Left-2" data-name="Whiskers Left"><path id="Bottom_Whisker-2-2" data-name="Bottom Whisker-2" class="cls-6" d="M477.24,351.94a547.44,547.44,0,0,0-159.3-40.68,1.91,1.91,0,0,1,.38-3.81,551.22,551.22,0,0,1,160.4,41,1.92,1.92,0,0,1-.74,3.68A1.85,1.85,0,0,1,477.24,351.94Z"/><path id="Top_Whisker-2-2" data-name="Top Whisker-2" class="cls-6" d="M316.31,294.62a1.92,1.92,0,0,1,1.21-2.43c2-.69,4-1.37,6.05-2,60.37-19.5,126.92-21.54,197.81-6.06a1.91,1.91,0,0,1-.82,3.74c-70.22-15.33-136.1-13.32-195.82,6-2,.64-4,1.31-6,2a1.87,1.87,0,0,1-.62.1A1.92,1.92,0,0,1,316.31,294.62Z"/></g></g></g><rect id="Left_Eye" data-name="Left Eye" class="cls-7" x="177.38" y="234.52" width="21.51" height="35.18" rx="10.75"/><circle class="cls-8" cx="192.1" cy="242.09" r="5.5"/><rect id="Left_Eye-2" data-name="Left Eye" class="cls-7" x="337.38" y="234.52" width="21.51" height="35.18" rx="10.75"/><circle class="cls-8" cx="352.1" cy="242.09" r="5.5"/><rect class="cls-9" width="537.06" height="537.06"/></g></g></svg>